<svg id="ico_n_word" xmlns="http://www.w3.org/2000/svg" width="40" height="40.001" viewBox="0 0 40 40.001">
  <rect id="bg_icon" width="40" height="40" transform="translate(0 0.001)" fill="#f33737" opacity="0"/>
  <g id="그룹_62847" data-name="그룹 62847" transform="translate(-886.336 -363.077)">
    <path id="패스_68554" data-name="패스 68554" d="M898.518,395.7l-.454-.251.357-.375a4.288,4.288,0,1,0-6.221,0l.357.375-.454.251a6.632,6.632,0,0,0-3.426,5.8.772.772,0,0,0,.771.772h11.723a.772.772,0,0,0,.771-.772A6.632,6.632,0,0,0,898.518,395.7Zm-3.208-6.318a2.745,2.745,0,1,1-2.744,2.745A2.749,2.749,0,0,1,895.31,389.386Zm5.062,11.348H890.26l.129-.5a5.088,5.088,0,0,1,9.854,0Z" fill="#f33737"/>
    <path id="패스_68555" data-name="패스 68555" d="M919.768,395.7l-.454-.25.357-.375a4.288,4.288,0,1,0-6.221,0l.357.375-.454.25a6.639,6.639,0,0,0-3.424,5.8.772.772,0,0,0,.771.772h11.72a.772.772,0,0,0,.771-.772A6.638,6.638,0,0,0,919.768,395.7Zm-3.208-6.317a2.745,2.745,0,1,1-2.744,2.745A2.749,2.749,0,0,1,916.56,389.386Zm5.056,11.348H911.505l.129-.5a5.088,5.088,0,0,1,9.853,0Z" fill="#f33737"/>
    <path id="패스_68556" data-name="패스 68556" d="M924.764,363.077H902.735a.772.772,0,0,0-.771.772v3.759H887.107a.772.772,0,0,0-.771.77v13.2a.772.772,0,0,0,.771.772h5.54l2.118,2.117a.773.773,0,0,0,1.09,0l2.118-2.117h11.166a.772.772,0,0,0,.771-.772v-3.922H913.9l2.117,2.117a.776.776,0,0,0,1.092,0l2.117-2.117h5.54a.772.772,0,0,0,.768-.772V363.849A.772.772,0,0,0,924.764,363.077Zm-16.4,17.734H897.654a.768.768,0,0,0-.547.227l-1.8,1.8-1.8-1.8a.767.767,0,0,0-.546-.226h-5.088V369.152h14.084v7.731a.773.773,0,0,0,.771.771h5.632Zm10.538-4.7h0a.77.77,0,0,0-.546.227l-1.8,1.8-1.8-1.8a.768.768,0,0,0-.544-.226H903.505v-11.49h20.487v11.49Z" fill="#f33737"/>
    <circle id="타원_1455" data-name="타원 1455" cx="1.172" cy="1.172" r="1.172" transform="translate(907.888 371.023)" fill="#f33737"/>
    <circle id="타원_1456" data-name="타원 1456" cx="1.172" cy="1.172" r="1.172" transform="translate(912.578 371.023)" fill="#f33737"/>
    <circle id="타원_1457" data-name="타원 1457" cx="1.172" cy="1.172" r="1.172" transform="translate(892.263 375.711)" fill="#f33737"/>
    <circle id="타원_1458" data-name="타원 1458" cx="1.172" cy="1.172" r="1.172" transform="translate(896.951 375.711)" fill="#f33737"/>
    <path id="패스_68557" data-name="패스 68557" d="M918.437,371.023a1.172,1.172,0,1,0,1.172,1.172A1.171,1.171,0,0,0,918.437,371.023Z" fill="#f33737"/>
  </g>
</svg>
