<svg id="ico_live_wordcloud" xmlns="http://www.w3.org/2000/svg" width="40" height="40" viewBox="0 0 40 40">
  <rect id="bg_icon" width="40" height="40" fill="#f33737" opacity="0"/>
  <g id="그룹_62850" data-name="그룹 62850" transform="translate(-1276.411 -356.432)">
    <path id="패스_68568" data-name="패스 68568" d="M1312.319,371.212a7.851,7.851,0,0,0-4.09-4.476,10.175,10.175,0,0,0-15.538-4.258,7.756,7.756,0,0,0-10.569,8.08,7.754,7.754,0,0,0,2.888,14.885l.216,5.571a.93.93,0,0,0,.929.891h0a.929.929,0,0,0,.637-.253l6.625-6.209h14.636a7.754,7.754,0,0,0,4.265-14.231Zm-28.245-.251a5.783,5.783,0,0,1-.14-1.284,5.888,5.888,0,0,1,5.89-5.888h.019a5.862,5.862,0,0,1,2.571.6.927.927,0,0,0,1.019-.127,8.313,8.313,0,0,1,13.194,3.491.935.935,0,0,0,.532.547,5.907,5.907,0,0,1,3.488,3.786.934.934,0,0,0,.416.533,5.893,5.893,0,0,1-3.005,10.962h-15.011a.929.929,0,0,0-.636.254l-5.406,5.067-.172-4.425a.93.93,0,0,0-.931-.892h-.736a5.894,5.894,0,0,1-1.728-11.529A.937.937,0,0,0,1284.074,370.961Z" fill="#f33737"/>
    <path id="패스_68569" data-name="패스 68569" d="M1289.744,372.894h12.862a.931.931,0,1,0,0-1.862h-12.862a.931.931,0,1,0,0,1.862Z" fill="#f33737"/>
    <path id="패스_68570" data-name="패스 68570" d="M1286.894,378.448h10.495a.933.933,0,0,0,.925-.926.932.932,0,0,0-.926-.937h-10.495a.932.932,0,0,0,0,1.863Z" fill="#f33737"/>
    <path id="패스_68571" data-name="패스 68571" d="M1301.164,377.517c0,.539.221.931.524.931h4.657c.3,0,.524-.392.524-.931,0-.463-.181-.932-.524-.932h-4.657C1301.344,376.585,1301.164,377.054,1301.164,377.517Z" fill="#f33737"/>
  </g>
</svg>
