<svg xmlns="http://www.w3.org/2000/svg" width="40" height="40" viewBox="0 0 40 40"><defs><style>.a{opacity:0.8;}.b{fill:#fff;opacity:0;}.c{fill:none;stroke:#f33737;stroke-linecap:round;stroke-linejoin:round;stroke-width:2.2px;}</style></defs><g class="a" transform="translate(-1481 -1438)"><rect class="b" width="40" height="40" transform="translate(1481 1438)"/><g transform="translate(1484.117 1441.117)"><path class="c" d="M30.71,12V28.694H4V12" transform="translate(-0.661 4.694)"/><rect class="c" width="33.387" height="8.347" transform="translate(0 8.347)"/><line class="c" y1="25.04" transform="translate(16.694 8.347)"/><path class="c" d="M16.686,10.347H9.173A4.173,4.173,0,0,1,9.173,2C15.016,2,16.686,10.347,16.686,10.347Z" transform="translate(0.008 -2)"/><path class="c" d="M12,10.347h7.512a4.173,4.173,0,1,0,0-8.347C13.669,2,12,10.347,12,10.347Z" transform="translate(4.694 -2)"/></g></g></svg>