<svg id="ico_stamp" xmlns="http://www.w3.org/2000/svg" width="40" height="40" viewBox="0 0 40 40">
  <rect id="bg_icon" width="40" height="40" fill="#f33737" opacity="0"/>
  <g id="그룹_62853" data-name="그룹 62853" transform="translate(-1096.669 -258.93)">
    <path id="패스_68576" data-name="패스 68576" d="M1105.745,289.2l-1.516-1.516L1103,288.913l2.749,2.749,5.092-5.092-1.232-1.233Z" fill="#f33737"/>
    <path id="패스_68577" data-name="패스 68577" d="M1135.016,260.864a5.012,5.012,0,0,0-7.031-.879,5.049,5.049,0,0,0-.88.879l-5.664,7.256-.224-.126c-3.388-1.9-6.812-1.89-8.721.019l-3.315,3.315c-1.327,1.327-1.76,3.345-1.22,5.683.037.161.079.323.125.488l.115.414-.429-.036c-.284-.023-.569-.036-.856-.036a10.245,10.245,0,1,0,10.247,10.244c0-.286-.013-.572-.037-.856l-.038-.432.418.118c.162.045.324.087.487.125a5.961,5.961,0,0,0,5.7-1.232l3.3-3.3c1.909-1.91,1.917-5.333.02-8.721l-.126-.224,7.25-5.664a5.014,5.014,0,0,0,.88-7.032ZM1114.178,292.5a8.5,8.5,0,1,1-9.264-12.683,8.56,8.56,0,0,1,4.01,0l.128.031.063.115a15.128,15.128,0,0,0,2.549,3.365l-.209.215.213-.211a15.113,15.113,0,0,0,3.364,2.548l.115.064.032.128A8.449,8.449,0,0,1,1114.178,292.5Zm8.35-8.019a3.54,3.54,0,0,1-2.674,1.043,6.67,6.67,0,0,1-1.474-.179,12.808,12.808,0,0,1-8.72-8.712,4.272,4.272,0,0,1,.862-4.177l.565.108a12.8,12.8,0,0,0,3.888,7.452,12.973,12.973,0,0,0,7.461,3.9l.918.139Zm3.226-3.207a3.574,3.574,0,0,1-2.414.946c-.061,0-.12,0-.18-.005a10.7,10.7,0,0,1-6.955-3.437,11.763,11.763,0,0,1-3.226-5.46,4.211,4.211,0,0,1,.733-4.045c1.292-1.295,3.77-1.257,6.329.068l-.119.283.213.17L1118,272.474v.3a4.288,4.288,0,0,0,4.233,4.231h.293l2.969-2.362.168.323C1126.991,277.522,1127.026,280,1125.754,281.271Zm7.88-15.32a3.348,3.348,0,0,1-.571.57l-11.114,8.682-.131-.023a2.455,2.455,0,0,1-2-2l-.022-.131,8.682-11.117a3.267,3.267,0,0,1,5.153,4.016Z" fill="#f33737"/>
  </g>
</svg>
