<svg id="ico_live_guest" xmlns="http://www.w3.org/2000/svg" width="40" height="40" viewBox="0 0 40 40">
  <rect id="bg_icon" width="40" height="40" fill="#f33737" opacity="0"/>
  <path id="패스_68572" data-name="패스 68572" d="M1274.47,301.119l-5-4.991a.878.878,0,0,0-1.24,0l-6.988,6.988h-20.691a3.243,3.243,0,0,0-3.233,3.23v16.477a3.241,3.241,0,0,0,3.232,3.231h1.555v6.341a.878.878,0,0,0,1.505.613l6.8-6.955h13.833a3.241,3.241,0,0,0,3.231-3.232V309.348l6.988-6.988A.879.879,0,0,0,1274.47,301.119Zm-8.747,21.7a1.479,1.479,0,0,1-1.477,1.476h-14.2a.886.886,0,0,0-.626.264l-5.556,5.682v-5.073a.878.878,0,0,0-.877-.878h-2.432a1.478,1.478,0,0,1-1.477-1.476V306.347a1.481,1.481,0,0,1,1.477-1.475h18.938l-4.067,4.066a.906.906,0,0,0-.194.294l-3.336,8.008h-6.555a.877.877,0,0,0,0,1.754h7.139a.9.9,0,0,0,.345-.071l8.536-3.556a.9.9,0,0,0,.3-.2l4.063-4.068Zm-9.371-11.72,3.141,3.141-5.387,2.243Zm4.687,2.207-3.753-3.753,8.236-8.24,3.755,3.755Zm9.483-9.48-3.757-3.752,2.089-2.089,3.752,3.752Z" transform="translate(-1236.322 -294.871)" fill="#f33737"/>
</svg>
