<svg id="ico_live_check" xmlns="http://www.w3.org/2000/svg" width="40" height="40" viewBox="0 0 40 40">
  <rect id="bg_icon" width="40" height="40" fill="#f33737" opacity="0"/>
  <path id="패스_68573" data-name="패스 68573" d="M1198.89,287.347a.879.879,0,1,0-1.286,1.2l5.627,5.668a.911.911,0,0,0,1.245,0l17-16.9a.883.883,0,0,0,.287-.618.868.868,0,0,0-.236-.631.879.879,0,0,0-1.242-.044l-6.288,6.247-.209-.256a13.118,13.118,0,0,0-8.9-4.8,13.446,13.446,0,0,0-1.37-.07,13.208,13.208,0,0,0-10.218,21.548,13.257,13.257,0,0,0,9.267,4.833c.321.025.646.033.965.033a13.144,13.144,0,0,0,13.052-11.187,13.475,13.475,0,0,0,.154-2.034.878.878,0,1,0-1.754-.06,12.338,12.338,0,0,1-.133,1.824,11.469,11.469,0,1,1-2.282-8.793l.162.21-8.873,8.833Z" transform="translate(-1186.334 -269.789)" fill="#f33737"/>
</svg>
