<svg id="ico_live_tile" xmlns="http://www.w3.org/2000/svg" width="40" height="40" viewBox="0 0 40 40">
  <rect id="bg_icon" width="40" height="40" fill="#f33737" opacity="0"/>
  <g id="그룹_62854" data-name="그룹 62854" transform="translate(-1027.064 -254.707)">
    <path id="패스_68578" data-name="패스 68578" d="M1060.772,257.707h-26.916a3.8,3.8,0,0,0-3.792,3.792v26.917a3.8,3.8,0,0,0,3.792,3.791h26.916a3.8,3.8,0,0,0,3.792-3.792V261.5A3.8,3.8,0,0,0,1060.772,257.707Zm0,32.583h-26.916a1.882,1.882,0,0,1-1.875-1.875V261.5a1.882,1.882,0,0,1,1.875-1.876h26.916a1.88,1.88,0,0,1,1.875,1.875v26.916A1.881,1.881,0,0,1,1060.772,290.29Z" fill="#f33737"/>
    <path id="패스_68579" data-name="패스 68579" d="M1046.618,263.375h-11.357a.992.992,0,0,0-.947,1.022v9.268a1,1,0,0,0,.958,1.033h11.346a.992.992,0,0,0,.946-1.022v-9.268A.993.993,0,0,0,1046.618,263.375Zm-.97,2.045v7.232h-9.417V265.42Z" fill="#f33737"/>
    <path id="패스_68580" data-name="패스 68580" d="M1059.355,266.207h-8.5a.961.961,0,0,0-.958.958v12.75a.962.962,0,0,0,.958.959h8.5a.961.961,0,0,0,.957-.959v-12.75A.96.96,0,0,0,1059.355,266.207Zm-.958,1.917v10.833h-6.583V268.124Z" fill="#f33737"/>
    <path id="패스_68581" data-name="패스 68581" d="M1046.683,278.394H1036.61a.884.884,0,0,0-.879.887v6.37a.887.887,0,0,0,.88.889h10.073a.886.886,0,0,0,.878-.887v-6.371a.884.884,0,0,0-.879-.888Zm-.877,1.772v4.6h-8.316v-4.6Z" fill="#f33737"/>
  </g>
</svg>
