<svg id="ico_live_quiz" xmlns="http://www.w3.org/2000/svg" width="40" height="40" viewBox="0 0 40 40">
  <rect id="bg_icon" width="40" height="40" fill="#f33737" opacity="0"/>
  <g id="그룹_62848" data-name="그룹 62848" transform="translate(-1129.604 -356.326)">
    <path id="패스_68558" data-name="패스 68558" d="M1155.4,366.394h0a.784.784,0,0,0,.783-.783,1.386,1.386,0,0,1,1.384-1.383h0a1.384,1.384,0,0,1,.467,2.686,1.9,1.9,0,0,0-1.252,1.778v.171a.785.785,0,0,0,.784.783h0a.784.784,0,0,0,.783-.783v-.38l.208-.091a2.952,2.952,0,0,0-.99-5.733h0a2.962,2.962,0,0,0-2.952,2.952A.786.786,0,0,0,1155.4,366.394Z" fill="#f33737"/>
    <circle id="타원_1459" data-name="타원 1459" cx="0.684" cy="0.684" r="0.684" transform="translate(1156.881 371.431)" fill="#f33737"/>
    <path id="패스_68559" data-name="패스 68559" d="M1153.334,384.528l-.158-.057a9.447,9.447,0,0,1-5.017-4.078,9.394,9.394,0,0,0-5.82-4.3,9.494,9.494,0,0,0-2.3-.283,9.458,9.458,0,1,0,4.893,17.562,9.505,9.505,0,0,0,3.218-3.214,9.608,9.608,0,0,1,5.182-4.144.783.783,0,0,0,0-1.486Zm-2.687,1a11.207,11.207,0,0,0-3.838,3.82h0a7.842,7.842,0,0,1-6.707,3.808h-.033a7.887,7.887,0,0,1,0-15.775h.026a7.843,7.843,0,0,1,6.724,3.82,11.134,11.134,0,0,0,3.83,3.812l.433.258Z" fill="#f33737"/>
    <path id="패스_68560" data-name="패스 68560" d="M1144.315,368.523l.33.109-.005.008a9.6,9.6,0,0,1,4.852,4.029,9.454,9.454,0,1,0-.008-9.766,9.537,9.537,0,0,1-5.174,4.13.785.785,0,0,0,0,1.49Zm2.68-1a11.135,11.135,0,0,0,3.832-3.813,7.838,7.838,0,0,1,6.712-3.82h.026a7.888,7.888,0,0,1,0,15.776h-.025a7.841,7.841,0,0,1-6.707-3.81,11.222,11.222,0,0,0-3.837-3.817l-.433-.259Z" fill="#f33737"/>
    <path id="패스_68561" data-name="패스 68561" d="M1143.075,387.028l-1.754-1.761,1.744-1.745a.782.782,0,0,0-.049-1.1.788.788,0,0,0-1.066,0l-1.738,1.737-1.748-1.743a.784.784,0,0,0-1.109,1.109l1.744,1.744-1.743,1.746a.783.783,0,0,0,1.11,1.106l1.745-1.745,1.746,1.745a.79.79,0,0,0,.551.278.766.766,0,0,0,.567-.195.785.785,0,0,0,.07-1.107A.773.773,0,0,0,1143.075,387.028Z" fill="#f33737"/>
    <path id="패스_68562" data-name="패스 68562" d="M1164.407,388.108l-.453-.25.356-.375a4.289,4.289,0,0,0-3.106-7.241l-.115,0a4.288,4.288,0,0,0-3,7.239l.356.375-.453.25a6.638,6.638,0,0,0-3.425,5.8.773.773,0,0,0,.772.772h11.718a.773.773,0,0,0,.772-.772A6.638,6.638,0,0,0,1164.407,388.108Zm-3.206-6.317a2.745,2.745,0,1,1-2.745,2.745A2.748,2.748,0,0,1,1161.2,381.791Zm5.056,11.348h-10.112l.129-.5a5.089,5.089,0,0,1,9.854,0Z" fill="#f33737"/>
    <path id="패스_68563" data-name="패스 68563" d="M1131.493,373.372h11.719a.772.772,0,0,0,.771-.772,6.636,6.636,0,0,0-3.424-5.8l-.453-.25.357-.375a4.29,4.29,0,0,0-3.108-7.241l-.114,0a4.288,4.288,0,0,0-3,7.239l.356.375-.453.25a6.639,6.639,0,0,0-3.426,5.8A.773.773,0,0,0,1131.493,373.372Zm5.859-12.891a2.744,2.744,0,1,1-2.744,2.744A2.747,2.747,0,0,1,1137.352,360.481Zm-4.927,10.847a5.089,5.089,0,0,1,9.854,0l.129.5H1132.3Z" fill="#f33737"/>
  </g>
</svg>
