<svg id="__img_logo_congkong" data-name="#_img_logo_congkong" xmlns="http://www.w3.org/2000/svg" width="64" height="64" viewBox="0 0 64 64">
  <rect id="bg_logo" width="64" height="64" fill="none"/>
  <path id="logo_latter" d="M34.674,36.957a19.645,19.645,0,0,1-5.8,1.666,20.145,20.145,0,0,1-2.482.152,25.21,25.21,0,0,1-7.094-1.1A23.716,23.716,0,0,1,7.889,30.068l-1.178,1.57v3.893a2.02,2.02,0,0,1-.846,1.635,1.929,1.929,0,0,1-.734.332h.006L4.1,37.707a2.029,2.029,0,0,1-.266.021A1.84,1.84,0,0,1,2,35.895V24.549L.664,24.117A.519.519,0,0,1,.477,24a.583.583,0,0,1,.279-1l1.727-.346,1.887-.375-.023,0a1.8,1.8,0,0,1,.4-.039,1.963,1.963,0,0,1,1.967,1.965V25.4l2.66-3.473a2.488,2.488,0,0,1,1.506-.937l1.881-.375a.623.623,0,0,1,.115-.012,1.062,1.062,0,0,1,1.063,1.063,1.079,1.079,0,0,1-.178.586l-3.432,4.564A20.081,20.081,0,0,0,20.4,33.906a19.538,19.538,0,0,0,7.98.816,17.063,17.063,0,0,0,8.844-4.006,8.1,8.1,0,0,1,.943-.824.661.661,0,0,1,.068-.062l.006,0A8.966,8.966,0,0,1,40.592,28.6a19.2,19.2,0,0,1,.789-1.754A6.28,6.28,0,0,1,40.176,16.7a17.231,17.231,0,0,1,1.648-3.8A6.262,6.262,0,0,1,43.432.99l4.9-.977h.006A.361.361,0,0,1,48.451,0a.586.586,0,0,1,.592.584.6.6,0,0,1-.187.434l-1.041.926a6.258,6.258,0,0,1-1.859,11.3A17.46,17.46,0,0,0,44.8,15.068c.113.008.232.018.34.029l3.838-.768c.039,0,.08-.012.119-.012a.594.594,0,0,1,.59.592.587.587,0,0,1-.176.416L48.3,16.41a6.274,6.274,0,0,1-3.127,11.152c-.119.205-.244.42-.369.646a8.8,8.8,0,1,1-10.129,8.748ZM43.035,41.2a.673.673,0,0,0,.438.166.658.658,0,0,0,.438-.166l.58-.5.75.15A.668.668,0,0,0,46,40.408l.244-.723.729-.25a.672.672,0,0,0,.438-.762l-.148-.75.5-.574a.661.661,0,0,0,0-.875l-.5-.576.148-.75a.667.667,0,0,0-.437-.754l-.729-.25L46,33.422a.668.668,0,0,0-.756-.437l-.75.146-.58-.5a.661.661,0,0,0-.875,0l-.574.5-.75-.146a.665.665,0,0,0-.756.438l-.25.723-.723.25a.655.655,0,0,0-.437.754l.148.75-.506.576a.675.675,0,0,0,0,.879l.506.57-.148.75a.66.66,0,0,0,.438.762l.723.25.25.723a.665.665,0,0,0,.756.438l.75-.15Zm-1.1-19.863A2.467,2.467,0,1,0,44.4,18.865,2.466,2.466,0,0,0,41.938,21.332ZM41.928,7.18a2.461,2.461,0,1,0,2.461-2.455A2.459,2.459,0,0,0,41.928,7.18ZM13.951,25.93a6.045,6.045,0,1,1,6.043,6.047A6.044,6.044,0,0,1,13.951,25.93Zm3.672,0a2.373,2.373,0,1,0,2.371-2.375A2.379,2.379,0,0,0,17.623,25.93ZM27.279,29.7a1.6,1.6,0,0,1-.521-1.2V20.566a2.261,2.261,0,0,1,1.789-2.213l.711-.146c1.188-.238,1.416.387,1.416.387a4.082,4.082,0,0,1,7.064,2.676v5.686a1.636,1.636,0,0,1-.676,1.324,1.684,1.684,0,0,1-.627.271h.008l-.684.137a1.8,1.8,0,0,1-.307.021,1.621,1.621,0,0,1-1.631-1.617v-4.43a1.574,1.574,0,0,0-3.148-.012v5.719a1.625,1.625,0,0,1-.682,1.324,1.6,1.6,0,0,1-.58.262l-.705.143a1.573,1.573,0,0,1-.318.033A1.632,1.632,0,0,1,27.279,29.7Zm-.521-9.137v.006ZM0,12.244A8.023,8.023,0,0,1,13.186,6.1a1.627,1.627,0,0,1-.092,2.477l-.613.445a1.855,1.855,0,0,1-2.074.033,3.982,3.982,0,1,0,.221,6.2,1.747,1.747,0,0,1,1.125-.416,1.771,1.771,0,0,1,.91.25l.658.4a1.637,1.637,0,0,1,.24,2.563A8.025,8.025,0,0,1,0,12.244ZM13.98,11.8a6.045,6.045,0,1,1,6.047,6.047A6.048,6.048,0,0,1,13.98,11.8Zm3.672,0A2.376,2.376,0,1,0,20.027,9.42,2.374,2.374,0,0,0,17.652,11.8Zm9.627,3.768a1.611,1.611,0,0,1-.521-1.2V6.43a2.268,2.268,0,0,1,1.83-2.223l.67-.129c1.188-.24,1.416.379,1.416.379v.006a4.079,4.079,0,0,1,7.064,2.678v5.678a1.633,1.633,0,0,1-.676,1.324,1.653,1.653,0,0,1-.627.271h.008l-.684.139a1.967,1.967,0,0,1-.307.027,1.66,1.66,0,0,1-1.109-.432,1.629,1.629,0,0,1-.521-1.187V8.533a1.574,1.574,0,0,0-3.148-.012V14.24a1.63,1.63,0,0,1-.682,1.324,1.78,1.78,0,0,1-.58.262l-.705.135a1.444,1.444,0,0,1-.318.033A1.619,1.619,0,0,1,27.279,15.564ZM22.4,5.141v-2.1l-.934.779v.82a.2.2,0,1,1-.4,0V3.82l-1.131-.947L18.8,3.82v.82a.2.2,0,1,1-.4,0V3.82l-.926-.779v2.1a.2.2,0,0,1-.4,0V2.611a.053.053,0,0,1,.006-.029.621.621,0,0,1-.437-.6.634.634,0,1,1,.887.574l1.08.9,1.074-.9a.633.633,0,1,1,.891-.574.634.634,0,0,1-.379.574l1.08.9,1.072-.9a.638.638,0,1,1,.457.021c0,.012,0,.018,0,.029V5.141a.2.2,0,0,1-.4,0Zm-.029-3.154a.227.227,0,0,0,.227.227.231.231,0,1,0-.227-.227Zm-2.666,0a.231.231,0,1,0,.229-.234A.228.228,0,0,0,19.709,1.986Zm-2.664,0a.227.227,0,0,0,.227.227.23.23,0,1,0,0-.461A.229.229,0,0,0,17.045,1.986Z" transform="translate(5.715 9.141)" fill="#f33737"/>
</svg>
