<svg xmlns="http://www.w3.org/2000/svg" width="80" height="80" viewBox="0 0 80 80"><defs><style>.a{fill:none;}.b{fill:#fff;stroke:rgba(0,0,0,0);stroke-miterlimit:10;}</style></defs><rect class="a" width="80" height="80"/><path class="b" d="M43.345,46.194a24.557,24.557,0,0,1-7.253,2.083,25.181,25.181,0,0,1-3.1.19,31.512,31.512,0,0,1-8.867-1.377A29.645,29.645,0,0,1,9.863,37.583L8.391,39.546v4.866a2.526,2.526,0,0,1-1.057,2.043,2.412,2.412,0,0,1-.918.415h.007l-1.294.261a2.536,2.536,0,0,1-.332.027A2.3,2.3,0,0,1,2.5,44.866V30.684l-1.67-.54A.649.649,0,0,1,.6,30a.729.729,0,0,1,.349-1.25l2.158-.432,2.358-.469-.029,0a2.253,2.253,0,0,1,.5-.049,2.454,2.454,0,0,1,2.458,2.456v1.479L11.716,27.4A3.111,3.111,0,0,1,13.6,26.23l2.351-.469a.779.779,0,0,1,.144-.015,1.328,1.328,0,0,1,1.328,1.328,1.348,1.348,0,0,1-.222.732l-4.29,5.706a25.1,25.1,0,0,0,12.6,8.867A24.423,24.423,0,0,0,35.481,43.4a21.329,21.329,0,0,0,11.055-5.007,10.126,10.126,0,0,1,1.179-1.03.827.827,0,0,1,.085-.078l.007,0a11.207,11.207,0,0,1,2.935-1.548,24,24,0,0,1,.986-2.192,7.85,7.85,0,0,1-1.506-12.683,21.538,21.538,0,0,1,2.061-4.753A7.828,7.828,0,0,1,54.292,1.235L60.417.015h.007A.451.451,0,0,1,60.566,0a.733.733,0,0,1,.74.73.748.748,0,0,1-.234.542l-1.3,1.157a7.822,7.822,0,0,1-2.324,14.124,21.825,21.825,0,0,0-1.44,2.28c.142.01.291.022.425.037l4.8-.959c.049,0,.1-.015.149-.015a.742.742,0,0,1,.737.74.733.733,0,0,1-.22.52L60.376,20.51a7.842,7.842,0,0,1-3.909,13.94c-.149.256-.305.525-.461.808A11.005,11.005,0,1,1,43.345,46.194Zm10.452,5.3a.841.841,0,0,0,.547.208.822.822,0,0,0,.547-.208l.725-.625.938.188a.835.835,0,0,0,.945-.547l.305-.9.911-.312a.839.839,0,0,0,.547-.952l-.186-.937.625-.718a.826.826,0,0,0,0-1.094l-.625-.72.186-.937a.834.834,0,0,0-.547-.942l-.911-.312-.305-.9a.835.835,0,0,0-.945-.547l-.937.183-.725-.625a.826.826,0,0,0-1.094,0l-.718.625-.937-.183a.831.831,0,0,0-.945.547l-.312.9-.9.313a.819.819,0,0,0-.547.942l.186.938-.632.72a.844.844,0,0,0,0,1.1l.632.713-.186.938a.825.825,0,0,0,.547.952l.9.313.313.9a.831.831,0,0,0,.945.547l.938-.188ZM52.424,26.663a3.083,3.083,0,1,0,3.083-3.083A3.082,3.082,0,0,0,52.424,26.663Zm-.012-17.69A3.076,3.076,0,1,0,55.488,5.9,3.073,3.073,0,0,0,52.412,8.972ZM17.441,32.41A7.556,7.556,0,1,1,25,39.968,7.556,7.556,0,0,1,17.441,32.41Zm4.59,0A2.966,2.966,0,1,0,25,29.441,2.973,2.973,0,0,0,22.031,32.41ZM34.1,37.119a2,2,0,0,1-.652-1.5V25.706a2.826,2.826,0,0,1,2.236-2.766l.889-.183c1.484-.3,1.77.483,1.77.483a5.1,5.1,0,0,1,8.831,3.345v7.107a2.044,2.044,0,0,1-.845,1.655,2.1,2.1,0,0,1-.784.339h.01l-.854.171a2.249,2.249,0,0,1-.383.027,2.026,2.026,0,0,1-2.039-2.021V28.325a1.968,1.968,0,0,0-3.936-.015v7.148a2.031,2.031,0,0,1-.852,1.655,2,2,0,0,1-.725.327l-.881.178a1.966,1.966,0,0,1-.4.042A2.04,2.04,0,0,1,34.1,37.119ZM33.45,25.7v.007ZM0,15.3A10.029,10.029,0,0,1,16.484,7.617a2.034,2.034,0,0,1-.115,3.1l-.767.557a2.318,2.318,0,0,1-2.593.042,4.978,4.978,0,1,0,.276,7.751,2.183,2.183,0,0,1,1.406-.52,2.214,2.214,0,0,1,1.138.313l.823.505a2.046,2.046,0,0,1,.3,3.2A10.031,10.031,0,0,1,0,15.3Zm17.478-.559A7.556,7.556,0,1,1,25.037,22.3,7.56,7.56,0,0,1,17.478,14.744Zm4.59,0a2.97,2.97,0,1,0,2.969-2.971A2.967,2.967,0,0,0,22.068,14.744ZM34.1,19.453a2.014,2.014,0,0,1-.652-1.494V8.035a2.835,2.835,0,0,1,2.288-2.778l.837-.161c1.484-.3,1.77.474,1.77.474v.007a5.1,5.1,0,0,1,8.831,3.347v7.1a2.041,2.041,0,0,1-.845,1.655,2.066,2.066,0,0,1-.784.339h.01l-.854.173a2.459,2.459,0,0,1-.383.034,2.075,2.075,0,0,1-1.387-.54A2.036,2.036,0,0,1,42.28,16.2V10.664a1.968,1.968,0,0,0-3.936-.015V17.8a2.038,2.038,0,0,1-.852,1.655,2.226,2.226,0,0,1-.725.327l-.881.168a1.806,1.806,0,0,1-.4.042A2.024,2.024,0,0,1,34.1,19.453ZM28.008,6.423V3.8l-1.167.974V5.8a.252.252,0,1,1-.5,0V4.773L24.924,3.589,23.508,4.773V5.8a.252.252,0,1,1-.5,0V4.773L21.848,3.8V6.423a.253.253,0,0,1-.505,0V3.262a.066.066,0,0,1,.007-.037A.776.776,0,0,1,20.8,2.48a.792.792,0,1,1,1.108.718l1.35,1.128L24.6,3.2a.791.791,0,1,1,1.113-.718.793.793,0,0,1-.474.718l1.35,1.128L27.935,3.2a.8.8,0,1,1,.571.027c0,.015,0,.022,0,.037V6.423a.252.252,0,0,1-.5,0ZM27.971,2.48a.283.283,0,0,0,.283.283.288.288,0,1,0-.283-.283Zm-3.333,0a.288.288,0,1,0,.286-.293A.286.286,0,0,0,24.639,2.48Zm-3.33,0a.283.283,0,0,0,.283.283.288.288,0,1,0,0-.576A.286.286,0,0,0,21.309,2.48Z" transform="translate(7.14 11.428)"/></svg>