<svg xmlns="http://www.w3.org/2000/svg" xmlns:xlink="http://www.w3.org/1999/xlink" width="164" height="226" viewBox="0 0 164 226"><defs><style>.a{fill:none;}.b{opacity:0.8;clip-path:url(#a);}.c{fill:#fff2f0;}</style><clipPath id="a"><rect class="a" width="164" height="226"/></clipPath></defs><g class="b"><g transform="translate(-586 -771)"><circle class="c" cx="4.5" cy="4.5" r="4.5" transform="translate(586 771)"/></g><g transform="translate(-555 -771)"><circle class="c" cx="4.5" cy="4.5" r="4.5" transform="translate(586 771)"/></g><g transform="translate(-524 -771)"><circle class="c" cx="4.5" cy="4.5" r="4.5" transform="translate(586 771)"/></g><g transform="translate(-493 -771)"><circle class="c" cx="4.5" cy="4.5" r="4.5" transform="translate(586 771)"/></g><g transform="translate(-462 -771)"><circle class="c" cx="4.5" cy="4.5" r="4.5" transform="translate(586 771)"/></g><g transform="translate(-431 -771)"><circle class="c" cx="4.5" cy="4.5" r="4.5" transform="translate(586 771)"/></g><g transform="translate(-586 -740)"><circle class="c" cx="4.5" cy="4.5" r="4.5" transform="translate(586 771)"/></g><g transform="translate(-555 -740)"><circle class="c" cx="4.5" cy="4.5" r="4.5" transform="translate(586 771)"/></g><g transform="translate(-524 -740)"><circle class="c" cx="4.5" cy="4.5" r="4.5" transform="translate(586 771)"/></g><g transform="translate(-493 -740)"><circle class="c" cx="4.5" cy="4.5" r="4.5" transform="translate(586 771)"/></g><g transform="translate(-462 -740)"><circle class="c" cx="4.5" cy="4.5" r="4.5" transform="translate(586 771)"/></g><g transform="translate(-431 -740)"><circle class="c" cx="4.5" cy="4.5" r="4.5" transform="translate(586 771)"/></g><g transform="translate(-586 -709)"><circle class="c" cx="4.5" cy="4.5" r="4.5" transform="translate(586 771)"/></g><g transform="translate(-555 -709)"><circle class="c" cx="4.5" cy="4.5" r="4.5" transform="translate(586 771)"/></g><g transform="translate(-524 -709)"><circle class="c" cx="4.5" cy="4.5" r="4.5" transform="translate(586 771)"/></g><g transform="translate(-493 -709)"><circle class="c" cx="4.5" cy="4.5" r="4.5" transform="translate(586 771)"/></g><g transform="translate(-462 -709)"><circle class="c" cx="4.5" cy="4.5" r="4.5" transform="translate(586 771)"/></g><g transform="translate(-431 -709)"><circle class="c" cx="4.5" cy="4.5" r="4.5" transform="translate(586 771)"/></g><g transform="translate(-586 -678)"><circle class="c" cx="4.5" cy="4.5" r="4.5" transform="translate(586 771)"/></g><g transform="translate(-555 -678)"><circle class="c" cx="4.5" cy="4.5" r="4.5" transform="translate(586 771)"/></g><g transform="translate(-524 -678)"><circle class="c" cx="4.5" cy="4.5" r="4.5" transform="translate(586 771)"/></g><g transform="translate(-493 -678)"><circle class="c" cx="4.5" cy="4.5" r="4.5" transform="translate(586 771)"/></g><g transform="translate(-462 -678)"><circle class="c" cx="4.5" cy="4.5" r="4.5" transform="translate(586 771)"/></g><g transform="translate(-431 -678)"><circle class="c" cx="4.5" cy="4.5" r="4.5" transform="translate(586 771)"/></g><g transform="translate(-586 -647)"><circle class="c" cx="4.5" cy="4.5" r="4.5" transform="translate(586 771)"/></g><g transform="translate(-555 -647)"><circle class="c" cx="4.5" cy="4.5" r="4.5" transform="translate(586 771)"/></g><g transform="translate(-524 -647)"><circle class="c" cx="4.5" cy="4.5" r="4.5" transform="translate(586 771)"/></g><g transform="translate(-493 -647)"><circle class="c" cx="4.5" cy="4.5" r="4.5" transform="translate(586 771)"/></g><g transform="translate(-462 -647)"><circle class="c" cx="4.5" cy="4.5" r="4.5" transform="translate(586 771)"/></g><g transform="translate(-431 -647)"><circle class="c" cx="4.5" cy="4.5" r="4.5" transform="translate(586 771)"/></g><g transform="translate(-586 -616)"><circle class="c" cx="4.5" cy="4.5" r="4.5" transform="translate(586 771)"/></g><g transform="translate(-555 -616)"><circle class="c" cx="4.5" cy="4.5" r="4.5" transform="translate(586 771)"/></g><g transform="translate(-524 -616)"><circle class="c" cx="4.5" cy="4.5" r="4.5" transform="translate(586 771)"/></g><g transform="translate(-493 -616)"><circle class="c" cx="4.5" cy="4.5" r="4.5" transform="translate(586 771)"/></g><g transform="translate(-462 -616)"><circle class="c" cx="4.5" cy="4.5" r="4.5" transform="translate(586 771)"/></g><g transform="translate(-431 -616)"><circle class="c" cx="4.5" cy="4.5" r="4.5" transform="translate(586 771)"/></g><g transform="translate(-586 -585)"><circle class="c" cx="4.5" cy="4.5" r="4.5" transform="translate(586 771)"/></g><g transform="translate(-555 -585)"><circle class="c" cx="4.5" cy="4.5" r="4.5" transform="translate(586 771)"/></g><g transform="translate(-524 -585)"><circle class="c" cx="4.5" cy="4.5" r="4.5" transform="translate(586 771)"/></g><g transform="translate(-493 -585)"><circle class="c" cx="4.5" cy="4.5" r="4.5" transform="translate(586 771)"/></g><g transform="translate(-462 -585)"><circle class="c" cx="4.5" cy="4.5" r="4.5" transform="translate(586 771)"/></g><g transform="translate(-431 -585)"><circle class="c" cx="4.5" cy="4.5" r="4.5" transform="translate(586 771)"/></g><g transform="translate(-586 -554)"><circle class="c" cx="4.5" cy="4.5" r="4.5" transform="translate(586 771)"/></g><g transform="translate(-555 -554)"><circle class="c" cx="4.5" cy="4.5" r="4.5" transform="translate(586 771)"/></g><g transform="translate(-524 -554)"><circle class="c" cx="4.5" cy="4.5" r="4.5" transform="translate(586 771)"/></g><g transform="translate(-493 -554)"><circle class="c" cx="4.5" cy="4.5" r="4.5" transform="translate(586 771)"/></g><g transform="translate(-462 -554)"><circle class="c" cx="4.5" cy="4.5" r="4.5" transform="translate(586 771)"/></g><g transform="translate(-431 -554)"><circle class="c" cx="4.5" cy="4.5" r="4.5" transform="translate(586 771)"/></g></g></svg>