<svg xmlns="http://www.w3.org/2000/svg" xmlns:xlink="http://www.w3.org/1999/xlink" width="106" height="140" viewBox="0 0 106 140"><defs><style>.a{fill:#fff;}.b,.c,.f,.i{fill:none;}.c{stroke:#0062ff;}.c,.f,.i{stroke-linecap:round;stroke-linejoin:round;}.d{fill:#0058ff;font-size:2px;font-family:Poppins-Medium, Poppins;font-weight:500;}.e{fill:#e6e9f4;}.f{stroke:#29cb97;stroke-miterlimit:10;}.g{fill:url(#c);}.h{fill:#7e84a3;font-size:1px;font-family:Poppins-Regular, Poppins;}.i{stroke:#3dd598;}.j{fill:#3dd598;font-size:3px;}.j,.k{font-family:Poppins-SemiBold, Poppins;}.j,.k,.l{font-weight:600;}.j,.l{letter-spacing:0.006em;}.k{fill:#131523;letter-spacing:0.004em;}.k,.l{font-size:8px;}.l{fill:#8e8e90;font-family:NotoSans-SemiBold, Noto Sans;}.m{filter:url(#a);}</style><filter id="a" x="0" y="0" width="106" height="140" filterUnits="userSpaceOnUse"><feOffset dy="1" input="SourceAlpha"/><feGaussianBlur stdDeviation="2" result="b"/><feFlood flood-color="#152232" flood-opacity="0.078"/><feComposite operator="in" in2="b"/><feComposite in="SourceGraphic"/></filter><linearGradient id="c" x1="0.5" y1="0.22" x2="0.5" y2="0.78" gradientUnits="objectBoundingBox"><stop offset="0" stop-color="#29cb97" stop-opacity="0.2"/><stop offset="1" stop-color="#fff" stop-opacity="0"/></linearGradient></defs><g transform="translate(6 5)"><g class="m" transform="matrix(1, 0, 0, 1, -6, -5)"><rect class="a" width="94" height="128" rx="6" transform="translate(6 5)"/></g><g transform="translate(9.338 110.977)"><g transform="translate(18.075 0)"><rect class="b" width="6.225" height="6.282" transform="translate(0 1.306)"/><path class="b" d="M0,0H4.98V5.025H0Z"/><path class="c" d="M9,6l1.243,1.254L9,8.509" transform="translate(-7.131 -4.742)"/></g><text class="d" transform="translate(0 3.306)"><tspan x="0" y="0">More Insights</tspan></text></g><rect class="e" width="75.324" height="0.314" transform="translate(9.338 105.687)"/><g transform="translate(9.337 61.873)"><path class="f" d="M0,10.9a9.9,9.9,0,0,1,6.295,1c6.37,3.246,6.733-2.7,9.095-5.564,2.161-2.622,3.951-1.022,6.357,2.184,1.775,2.365,4.361,6.335,7.039,5.7,2.448-.584,4.184-5.24,7.577-6.424,2.69-.938,4.875,1.64,7.972.729,4.2-1.236,4.827-5.971,7.83-5.971,3.706,0,6.027,8.448,9.4,8.448,3.351,0,5.076-8.352,8.742-5.816C73.107,7.112,74.726,0,74.726,0" transform="translate(0.391 0.314)"/><path class="g" d="M3138.848,1215.752a3.735,3.735,0,0,1,3.063,0,9.064,9.064,0,0,0,3.168,1.353c1.259.319,1.8.838,2.839.637s3.136-1.85,3.371-2.709,1.173-3.294,2.292-4.055,2.226-1.839,3.086-.806,3.781,4.331,3.781,4.331,2.686,3.458,3.662,3.917,1.976,1.033,2.644.832a5.56,5.56,0,0,0,2.491-1.511c.527-.72,2.583-4.439,4.86-4.693a12.755,12.755,0,0,1,4.585.473,3.159,3.159,0,0,1,1.992,0c1.384.315,2.408.916,3.647-.473s3.451-5.108,4.774-5.138,2.864.017,3.785,1.344,3.737,4.978,5.141,5.778a2.617,2.617,0,0,0,3.667-.53c1.256-1.246,2.627-4.02,3.7-4.331a3.447,3.447,0,0,1,2.424,0c.708.268,1.308.7,2.234,0s2.88-5.286,2.88-5.286v37.546h-75.324v-26.681Z" transform="translate(-3137.611 -1204.887)"/></g><g transform="translate(8.994 39.938)"><text class="h" transform="translate(21.046 1.908)"><tspan x="0" y="0">than last year</tspan></text><g transform="translate(10.041 0.015)"><path class="b" d="M0,0H4.98V4.98H0Z"/><line class="i" y2="3.152" transform="translate(2.51 0.895)"/><line class="i" x1="0.934" y1="0.934" transform="translate(2.514 0.903)"/><line class="i" y1="0.934" x2="0.934" transform="translate(1.572 0.903)"/></g><text class="j" transform="translate(0 3)"><tspan x="0" y="0">1.8%</tspan></text></g><text class="k" transform="translate(8.994 35)"><tspan x="0" y="0">156,927</tspan></text><text class="l" transform="translate(8.994 18.001)"><tspan x="0" y="0">Visitors this year</tspan></text></g></svg>