<svg xmlns="http://www.w3.org/2000/svg" width="46" height="46" viewBox="0 0 46 46"><defs><style>.a{fill:#ffc654;}.b{fill:#fff;}</style></defs><g transform="translate(0)"><g transform="translate(0 0)"><path class="a" d="M442.689,4384.382a22.715,22.715,0,1,1,45.425.105,23.116,23.116,0,0,1-2.705,10.787,8.753,8.753,0,0,0-1.036,3.837c0,.1,0,.2,0,.295a9.477,9.477,0,0,0,4.321,7.976H465.4A22.858,22.858,0,0,1,442.689,4384.382Z" transform="translate(-442.689 -4361.382)"/></g><g transform="translate(13 15.328)"><path class="b" d="M536.22,4467.045a4.642,4.642,0,0,1,1.664-1.376,5.806,5.806,0,0,1,4.941-.01,4.744,4.744,0,0,1,1.654,1.356,6.793,6.793,0,0,1,.97,1.9,12.052,12.052,0,0,1,.613,3.866,9.541,9.541,0,0,1-1.593,5.81,4.459,4.459,0,0,1-1.644,1.335,5.914,5.914,0,0,1-4.9-.009,4.712,4.712,0,0,1-1.675-1.326,6.862,6.862,0,0,1-.99-1.883,12.219,12.219,0,0,1-.592-3.947,11,11,0,0,1,.48-3.461A8.474,8.474,0,0,1,536.22,4467.045Zm4.125,9.808q2.1,0,2.1-3.968v-.122q0-4.069-2.083-4.069t-2.083,4.079Q538.282,4476.854,540.345,4476.854Z" transform="translate(-534.668 -4465.112)"/><path class="b" d="M621.45,4467.007a1.618,1.618,0,0,1,1.154-.526,3.63,3.63,0,0,1,.97.1,1.792,1.792,0,0,1,.531.232.85.85,0,0,1,.286.435,4.107,4.107,0,0,1,.1,1.073V4479.6a5.819,5.819,0,0,1-.031.7,1.616,1.616,0,0,1-.194.537q-.286.546-1.593.546-1.266,0-1.572-.526a1.607,1.607,0,0,1-.194-.557,6.66,6.66,0,0,1-.031-.739v-7.226l-.265.242a2.559,2.559,0,0,1-1.429.628,1.764,1.764,0,0,1-1.235-.708,2.013,2.013,0,0,1-.643-1.255,1.745,1.745,0,0,1,.735-1.2l3.349-3Z" transform="translate(-605.094 -4466.279)"/></g></g></svg>