<svg xmlns="http://www.w3.org/2000/svg" xmlns:xlink="http://www.w3.org/1999/xlink" width="560" height="580.366" viewBox="0 0 560 580.366"><defs><style>.a{fill:none;opacity:0;}.b,.t{opacity:0.9;}.b{fill:url(#a);}.c{fill:#391075;opacity:0.23;}.c,.e,.i{mix-blend-mode:multiply;isolation:isolate;}.d{fill:url(#b);}.e,.i{fill:#ff995f;}.e{opacity:0.44;}.f{fill:url(#c);}.g{fill:url(#d);}.h{fill:url(#e);}.i{opacity:0.3;}.j{fill:url(#f);}.k{fill:url(#g);}.aa,.l,.r,.s,.t,.u,.v,.w{fill:#fff;}.m{fill:#fb6f9b;}.n{fill:url(#h);}.o{fill:url(#i);}.p{fill:url(#j);}.ab,.q{fill:#dadce0;}.q,.s{opacity:0.8;}.r{opacity:0.5;}.ab,.u{opacity:0.6;}.v{opacity:0.2;}.w{opacity:0.7;}.x{opacity:0.82;fill:url(#k);}.y{opacity:0.1;}.z{opacity:0.05;}.aa{opacity:0.04;}</style><linearGradient id="a" x1="0.5" x2="0.5" y2="1" gradientUnits="objectBoundingBox"><stop offset="0" stop-color="#ff606d" stop-opacity="0.588"/><stop offset="1" stop-color="#ff606d"/></linearGradient><linearGradient id="b" x1="0.83" y1="-0.082" x2="1.147" y2="1.051" gradientUnits="objectBoundingBox"><stop offset="0.003" stop-color="#ffc25f"/><stop offset="0.538" stop-color="#ffc05f"/><stop offset="0.731" stop-color="#ffb95f"/><stop offset="0.869" stop-color="#ffad5f"/><stop offset="0.979" stop-color="#ff9c5f"/><stop offset="0.999" stop-color="#ff995f"/></linearGradient><linearGradient id="c" x1="0.39" y1="-0.452" x2="0.506" y2="0.823" gradientUnits="objectBoundingBox"><stop offset="0.003" stop-color="#ffd95f"/><stop offset="0.225" stop-color="#ffd25f"/><stop offset="0.523" stop-color="#ffc25f"/><stop offset="0.863" stop-color="#ffa65f"/><stop offset="0.999" stop-color="#ff995f"/></linearGradient><linearGradient id="d" x1="0.416" y1="0.615" x2="1.445" y2="0.615" gradientUnits="objectBoundingBox"><stop offset="0.003" stop-color="#ffd95f"/><stop offset="0.493" stop-color="#ffd75f"/><stop offset="0.669" stop-color="#ffd05f"/><stop offset="0.795" stop-color="#ffc45f"/><stop offset="0.897" stop-color="#ffb35f"/><stop offset="0.983" stop-color="#ff9d5f"/><stop offset="0.999" stop-color="#ff995f"/></linearGradient><linearGradient id="e" x1="0.9" y1="-0.256" x2="0.276" y2="0.922" xlink:href="#b"/><linearGradient id="f" x1="0.309" y1="-0.326" x2="0.509" y2="0.9" xlink:href="#d"/><linearGradient id="g" x1="0.454" y1="0.131" x2="0.505" y2="0.926" xlink:href="#d"/><linearGradient id="h" x1="0.591" y1="0.129" x2="0.506" y2="0.733" xlink:href="#d"/><linearGradient id="i" x1="0.25" y1="0.024" x2="0.832" y2="1.131" gradientUnits="objectBoundingBox"><stop offset="0.289" stop-color="#ffc25f"/><stop offset="0.999" stop-color="#ff995f"/></linearGradient><linearGradient id="j" x1="0.633" y1="-0.196" x2="0.488" y2="0.859" xlink:href="#d"/><linearGradient id="k" x1="1.004" y1="-0.235" x2="0.376" y2="1.573" gradientUnits="objectBoundingBox"><stop offset="0" stop-color="#360870"/><stop offset="1" stop-color="#1d4da0"/></linearGradient></defs><g transform="translate(-2.242 -85.153)"><rect class="a" width="560" height="560" transform="translate(2.242 85.153)"/><g transform="translate(12.243 131.153)"><g transform="translate(0 0)"><path class="b" d="M397.941,558.266c6.073.8,12.167,1.45,18.278,1.893,26.819,1.94,54.314-.166,79.406-9.829,8.817-3.395,20.1-7.48,23.316-17.015,3.465-10.284,1.879-22.026-3.316-31.448a48.078,48.078,0,0,0-27.238-22.661c-8.772-3.036-18.107-5.12-25.649-10.53-10.743-7.705-13.115-22.2-7.394-33.752,6.132-12.387,11.989-25.1,13.608-38.983,1.314-11.272-.6-23.4-6.676-33.122-6.657-10.651-18.058-13.754-30.132-14.953-16.228-1.612-34.623-1.874-42.021-19.53-5.6-13.353-.772-28.609,4.686-42.019,8-19.658,13.646-39.277,3.842-59.537-5.324-11-14.854-20.067-26.4-24.094-21.626-7.546-42.86,3.583-64.676-.765-9.1-1.813-18.043-6.607-23.8-14-6.881-8.828-5.855-19.925-7.42-30.481-2.719-18.336-17.17-32.743-36.027-33.989-24.315-1.605-45.068,20.986-55.935,40.255-9.581,16.991-15.31,35.728-22.771,53.664-5.891,14.161-17.272,26.962-33.366,28.668-14.786,1.567-27.543-7.105-41.11-11.075-14.162-4.144-29.75-2.919-43.356,2.64C25.842,244.938,11.283,259.271,1.483,276c-20.01,34.151-23.182,78.858-19.195,117.508,2.905,28.157,11.469,55.985,26.947,79.683a152.516,152.516,0,0,0,63.643,54.436c27.425,12.661,59.319,16.4,89.077,19.114a878.164,878.164,0,0,0,111.97,3.017c18.89-.7,37.631-2.5,56.468-3.906,7.4-.552,14.99,2.6,22.275,4.173,9.052,1.954,18.125,3.823,27.245,5.435C385.9,556.516,391.911,557.469,397.941,558.266Z" transform="translate(19.212 -123.372)"/><g transform="translate(85.921 92.95)"><rect class="c" width="143.775" height="91.728" transform="translate(142.18 131.309) rotate(-164.482)"/><rect class="d" width="143.775" height="91.728" transform="translate(139.823 122.686) rotate(-166.535)"/><path class="e" d="M152.549,249.965l56.808,71.464L70.063,288.077Z" transform="translate(-69.805 -198.784)"/><path class="f" d="M152,253.1l57.665,67.885L69.839,287.5Z" transform="translate(-69.839 -198.297)"/><path class="e" d="M145.132,277.138,88.324,205.673l139.294,33.352Z" transform="translate(-66.964 -205.673)"/><path class="g" d="M145.989,273.558,88.324,205.673l139.823,33.479Z" transform="translate(-66.964 -205.673)"/></g><path class="c" d="M249.5,333.038l-81.358-50.052L95.808,345.372l7.869,98.056L257.37,431.093Z" transform="translate(20.121 -100.699)"/><g transform="translate(109.986 180.233)"><rect class="h" width="154.187" height="98.371" transform="matrix(0.991, -0.136, 0.136, 0.991, 0, 66.365)"/><path class="i" d="M170.667,362.149,102.5,432.425l152.176-20.9Z" transform="translate(-88.824 -268.619)"/><path class="j" d="M170.951,365.546l-68.7,66.365L255,410.931Z" transform="translate(-88.863 -268.09)"/><path class="k" d="M159.367,281.208l-68.7,66.365.578-.079h0l77-1.676,75.177-19.225Z" transform="translate(-90.665 -281.208)"/></g><g transform="translate(211.921 25.04)"><path class="l" d="M265.258,176.876a27.131,27.131,0,0,0-3.179-10.438,30.878,30.878,0,0,0-7.046-8.723,43,43,0,0,0-9.97-6.414,46.54,46.54,0,0,0-12.335-3.713,55.094,55.094,0,0,0-27.235,2.565,46.489,46.489,0,0,0-11.425,5.95,43,43,0,0,0-8.6,8.163,30.877,30.877,0,0,0-5.294,9.886,27.074,27.074,0,0,0,3.474,23.624,34.88,34.88,0,0,0,10.2,9.876,45.868,45.868,0,0,0,14.435,5.893,52.676,52.676,0,0,0,17.023,1.1,53.544,53.544,0,0,0,16.253-4.109l10.477,6.023q5.838,2.955,7.937,1.287t.225-8.3l-3-10.031a32.9,32.9,0,0,0,6.524-10.727A26.975,26.975,0,0,0,265.258,176.876Z" transform="translate(-178.879 -146.904)"/><g transform="translate(21.328 28.814)"><path class="m" d="M225.29,178.542a4.487,4.487,0,1,1,4.044,4.889A4.486,4.486,0,0,1,225.29,178.542Z" transform="translate(-192.992 -171.429)"/><path class="m" d="M211.323,177.223a4.487,4.487,0,1,1,4.046,4.889A4.486,4.486,0,0,1,211.323,177.223Z" transform="translate(-195.164 -171.634)"/><path class="m" d="M197.357,175.9a4.487,4.487,0,1,1,4.044,4.888A4.486,4.486,0,0,1,197.357,175.9Z" transform="translate(-197.336 -171.839)"/></g></g><g transform="translate(418.659 218.721)"><path class="l" d="M370.19,325.357a22.522,22.522,0,0,1,6.433-6.391,25.662,25.662,0,0,1,8.589-3.617,35.734,35.734,0,0,1,9.823-.774,38.674,38.674,0,0,1,10.491,2.132,45.8,45.8,0,0,1,18.932,12.59,38.635,38.635,0,0,1,6.025,8.85,35.743,35.743,0,0,1,3.085,9.357,25.669,25.669,0,0,1-.012,9.319,22.5,22.5,0,0,1-11.835,15.931,28.978,28.978,0,0,1-11.35,3.222,38.1,38.1,0,0,1-12.885-1.362,43.774,43.774,0,0,1-12.9-5.893,44.451,44.451,0,0,1-10.283-9.4l-10.04.289q-5.437-.132-6.318-2.179t3.1-6.166l6.142-6.165a27.362,27.362,0,0,1-.558-10.419A22.423,22.423,0,0,1,370.19,325.357Z" transform="translate(-357.79 -314.516)"/><g transform="translate(26.873 22.905)"><path class="m" d="M388.212,339.516a3.729,3.729,0,1,0-4.884,1.989A3.729,3.729,0,0,0,388.212,339.516Z" transform="translate(-381.046 -334.338)"/><path class="m" d="M398.957,344.043a3.729,3.729,0,1,0-4.884,1.989A3.73,3.73,0,0,0,398.957,344.043Z" transform="translate(-379.374 -333.634)"/><path class="m" d="M409.7,348.57a3.729,3.729,0,1,0-4.883,1.989A3.729,3.729,0,0,0,409.7,348.57Z" transform="translate(-377.703 -332.93)"/></g></g><g transform="translate(249.188 55.121)"><path class="c" d="M365.473,284.855l19.692-87.439L272.469,187,256.42,265.894l-20.83,11.118-24.46,94.564,152.2,32.461,19.808-92.869Z" transform="translate(-211.13 -170.748)"/><g transform="translate(5.072 0)"><path class="n" d="M316.8,230.55l-84.138,37.721.55.117,70.456,23.73,74.557,7.2Z" transform="translate(-212.854 -163.976)"/><rect class="l" width="106.916" height="141.37" transform="translate(62.191 0) rotate(12.04)"/><path class="o" d="M306.334,287.041l-70.456-23.73-.55-.117L215.52,356.063,361.083,387.11l19.808-92.869Z" transform="translate(-215.52 -158.898)"/><path class="i" d="M300.687,307.765l-84.933,41.448,145.013,30.929Z" transform="translate(-215.483 -151.966)"/><path class="p" d="M299.658,310.919,215.52,348.64l145.564,31.047Z" transform="translate(-215.52 -151.475)"/><rect class="q" width="81.171" height="3.095" transform="translate(68.868 21.353) rotate(12.04)"/><rect class="q" width="85.251" height="3.095" transform="matrix(0.978, 0.209, -0.209, 0.978, 66.881, 30.669)"/><rect class="q" width="81.171" height="3.095" transform="translate(64.894 39.985) rotate(12.04)"/><rect class="q" width="85.251" height="3.095" transform="matrix(0.978, 0.209, -0.209, 0.978, 62.907, 49.301)"/><rect class="q" width="64.435" height="3.095" transform="matrix(0.978, 0.209, -0.209, 0.978, 60.92, 58.618)"/><rect class="q" width="85.251" height="3.095" transform="matrix(0.978, 0.209, -0.209, 0.978, 58.933, 67.934)"/><rect class="q" width="79.483" height="3.095" transform="translate(56.946 77.25) rotate(12.04)"/><rect class="q" width="85.251" height="3.095" transform="translate(54.959 86.567) rotate(12.04)"/><rect class="q" width="79.483" height="3.095" transform="matrix(0.978, 0.209, -0.209, 0.978, 52.972, 95.883)"/><rect class="q" width="85.251" height="3.095" transform="translate(50.985 105.199) rotate(12.04)"/></g></g><path class="r" d="M377.2,419.194h0a12.709,12.709,0,0,0,9.854,9.854h0A12.709,12.709,0,0,0,377.2,438.9h0a12.709,12.709,0,0,0-9.854-9.854h0a12.709,12.709,0,0,0,9.854-9.854Z" transform="translate(62.356 -79.514)"/><path class="l" d="M365.267,365.156h0a14.413,14.413,0,0,0,11.174,11.173h0A14.415,14.415,0,0,0,365.267,387.5h0a14.412,14.412,0,0,0-11.173-11.174h0a14.41,14.41,0,0,0,11.173-11.173Z" transform="translate(60.294 -87.918)"/><path class="r" d="M233.912,232.142h0A15.943,15.943,0,0,0,246.273,244.5h0a15.943,15.943,0,0,0-12.361,12.361h0A15.943,15.943,0,0,0,221.551,244.5h0a15.943,15.943,0,0,0,12.361-12.361Z" transform="translate(39.679 -108.607)"/><path class="s" d="M220.3,219.044h0a6.5,6.5,0,0,0,5.043,5.043h0a6.5,6.5,0,0,0-5.043,5.044h0a6.507,6.507,0,0,0-5.044-5.044h0a6.5,6.5,0,0,0,5.044-5.043Z" transform="translate(38.699 -110.644)"/><path class="r" d="M98.816,297.134h0a6.507,6.507,0,0,0,5.044,5.044h0a6.5,6.5,0,0,0-5.044,5.043h0a6.5,6.5,0,0,0-5.043-5.043h0a6.5,6.5,0,0,0,5.043-5.044Z" transform="translate(19.804 -98.498)"/><path class="r" d="M66.154,238.475h0a6.506,6.506,0,0,0,5.043,5.043h0a6.506,6.506,0,0,0-5.043,5.043h0a6.508,6.508,0,0,0-5.043-5.043h0a6.508,6.508,0,0,0,5.043-5.043Z" transform="translate(14.724 -107.622)"/><path class="l" d="M249.449,380.232h0a6.5,6.5,0,0,0,5.044,5.043h0a6.507,6.507,0,0,0-5.044,5.044h0a6.5,6.5,0,0,0-5.043-5.044h0a6.5,6.5,0,0,0,5.043-5.043Z" transform="translate(43.233 -85.574)"/><path class="r" d="M229.927,422.8h0a7.532,7.532,0,0,0,5.839,5.839h0a7.529,7.529,0,0,0-5.839,5.838h0a7.528,7.528,0,0,0-5.839-5.838h0a7.531,7.531,0,0,0,5.839-5.839Z" transform="translate(40.073 -78.953)"/><path class="l" d="M209.873,421.212h0a14.75,14.75,0,0,0,11.435,11.436h0a14.75,14.75,0,0,0-11.435,11.436h0a14.749,14.749,0,0,0-11.436-11.436h0a14.749,14.749,0,0,0,11.436-11.436Z" transform="translate(36.084 -79.2)"/><path class="r" d="M70.086,407.381h0a6.5,6.5,0,0,0,5.043,5.043h0a6.5,6.5,0,0,0-5.043,5.043h0a6.506,6.506,0,0,0-5.044-5.043h0a6.506,6.506,0,0,0,5.044-5.043Z" transform="translate(15.336 -81.351)"/><path class="t" d="M82.6,381.16h0a10.061,10.061,0,0,0,7.8,7.8h0a10.063,10.063,0,0,0-7.8,7.8h0a10.061,10.061,0,0,0-7.8-7.8h0a10.06,10.06,0,0,0,7.8-7.8Z" transform="translate(16.853 -85.429)"/><path class="l" d="M165.434,173.977h0a5.788,5.788,0,0,0,4.487,4.487h0a5.786,5.786,0,0,0-4.487,4.487h0a5.786,5.786,0,0,0-4.487-4.487h0a5.788,5.788,0,0,0,4.487-4.487Z" transform="translate(30.252 -117.654)"/><path class="l" d="M208.651,132.484h0a5.788,5.788,0,0,0,4.486,4.487h0a5.787,5.787,0,0,0-4.486,4.486h0a5.79,5.79,0,0,0-4.487-4.486h0a5.791,5.791,0,0,0,4.487-4.487Z" transform="translate(36.974 -124.107)"/><path class="r" d="M245.492,215.4h0a5.787,5.787,0,0,0,4.486,4.487h0a5.786,5.786,0,0,0-4.486,4.487h0a5.789,5.789,0,0,0-4.487-4.487h0a5.789,5.789,0,0,0,4.487-4.487Z" transform="translate(42.704 -111.21)"/><path class="u" d="M257.622,363.9h0a5.786,5.786,0,0,0,4.486,4.487h0a5.787,5.787,0,0,0-4.486,4.487h0a5.789,5.789,0,0,0-4.487-4.487h0a5.789,5.789,0,0,0,4.487-4.487Z" transform="translate(44.591 -88.113)"/><path class="v" d="M376.482,387.214h0a5.786,5.786,0,0,0,4.487,4.487h0a5.786,5.786,0,0,0-4.487,4.487h0a5.786,5.786,0,0,0-4.487-4.487h0a5.786,5.786,0,0,0,4.487-4.487Z" transform="translate(63.078 -84.488)"/><path class="u" d="M409.594,439.158h0a5.79,5.79,0,0,0,4.487,4.486h0a5.792,5.792,0,0,0-4.487,4.487h0a5.789,5.789,0,0,0-4.486-4.487h0a5.787,5.787,0,0,0,4.486-4.486Z" transform="translate(68.228 -76.408)"/><path class="w" d="M161.354,190.129h0a16.161,16.161,0,0,0,12.531,12.529h0a16.164,16.164,0,0,0-12.531,12.531h0a16.161,16.161,0,0,0-12.529-12.531h0a16.158,16.158,0,0,0,12.529-12.529Z" transform="translate(28.367 -115.141)"/><path class="t" d="M81.4,302.541h0A17.74,17.74,0,0,0,95.157,316.3h0A17.743,17.743,0,0,0,81.4,330.053h0A17.745,17.745,0,0,0,67.646,316.3h0A17.742,17.742,0,0,0,81.4,302.541Z" transform="translate(15.741 -97.657)"/><g transform="translate(229.299 251.819)"><path class="c" d="M376.352,405.669l-76.307-32.9a15.069,15.069,0,0,0-19.8,7.87L208.784,546.35a15.069,15.069,0,0,0,7.87,19.8l76.307,32.9a15.069,15.069,0,0,0,19.8-7.87l71.457-165.714A15.069,15.069,0,0,0,376.352,405.669Z" transform="translate(-191.798 -338.746)"/><path class="l" d="M371,398.705l-71.576-30.864a17.645,17.645,0,0,0-23.189,9.215L206.817,538.04a17.644,17.644,0,0,0,9.215,23.189l71.575,30.863a17.644,17.644,0,0,0,23.189-9.216l69.418-160.982A17.645,17.645,0,0,0,371,398.705Z" transform="translate(-192.137 -339.545)"/><rect class="x" width="194.629" height="96.795" rx="7.61" transform="translate(18.403 210.618) rotate(-66.674)"/><rect class="l" width="45.469" height="8.898" rx="3.112" transform="translate(120.329 39.399) rotate(23.326)"/><g transform="matrix(0.966, 0.259, -0.259, 0.966, 88.132, 111.509)"><g transform="translate(0 0)"><path class="l" d="M9.628,26.721a2.821,2.821,0,0,0-3.98.267L.7,32.65A2.82,2.82,0,0,0,.964,36.63l3.421,2.992a5.271,5.271,0,0,0,3.554,1.217,18.938,18.938,0,0,0,3.151-.2c4.026-1.276,9.817-3.85,16.415-11.4S36.256,15.176,37.3,10.66a22.072,22.072,0,0,0,.055-3.882,3.985,3.985,0,0,0-1.376-2.936,2.067,2.067,0,0,1-.244-.246L33.36,1.478,32.378.7A2.821,2.821,0,0,0,28.4.964L23.447,6.626a2.821,2.821,0,0,0,.267,3.98l4.265,3.729a43.516,43.516,0,0,1-6.428,9.7,39.345,39.345,0,0,1-7.409,6.634Z" transform="translate(0 0)"/></g><g transform="translate(3.849 5.983)"><path class="y" d="M0,33.169l.536.469A5.271,5.271,0,0,0,4.09,34.855a18.936,18.936,0,0,0,3.151-.2c4.026-1.276,9.817-3.85,16.415-11.4S32.408,9.193,33.447,4.677A22.079,22.079,0,0,0,33.5.8a3.311,3.311,0,0,0-.095-.8C31.5,18.7,14.513,29.132,0,33.169Z"/></g><g class="z" transform="translate(26.454 0.97)"><path d="M2.944.53,0,3.892C1.339,2.542,4.747.037,9.044,3.8L5.143.384A1.563,1.563,0,0,0,2.944.53Z" transform="translate(0 0)"/></g><g class="z" transform="translate(3.757 27.256)"><path d="M2.944.53,0,3.892C1.339,2.542,4.747.037,9.044,3.8L5.143.384A1.563,1.563,0,0,0,2.944.53Z"/></g></g><path class="aa" d="M193.458,159.243a17.749,17.749,0,0,1-15.928,0L3.3,54.546c-4.4-2.515-4.4-6.595,0-9.11L79.433,1.887a17.748,17.748,0,0,1,15.928,0Z" transform="matrix(0.574, 0.819, -0.819, 0.574, 131.99, 0)"/></g><g transform="translate(78.02 283.644)"><rect class="c" width="106.916" height="141.37" transform="translate(0 68.869) rotate(-40.102)"/><rect class="l" width="106.915" height="141.37" transform="translate(0.874 73.734) rotate(-42.167)"/><rect class="ab" width="81.171" height="3.095" transform="translate(22.1 80.806) rotate(-42.167)"/><rect class="ab" width="85.251" height="3.095" transform="matrix(0.741, -0.671, 0.671, 0.741, 28.494, 87.867)"/><rect class="ab" width="81.171" height="3.095" transform="translate(34.889 94.927) rotate(-42.167)"/><rect class="ab" width="85.251" height="3.095" transform="translate(41.284 101.988) rotate(-42.167)"/><rect class="ab" width="64.435" height="3.095" transform="translate(47.678 109.048) rotate(-42.167)"/><rect class="ab" width="85.251" height="3.095" transform="translate(54.073 116.109) rotate(-42.167)"/><rect class="ab" width="79.483" height="3.095" transform="translate(60.468 123.169) rotate(-42.167)"/><rect class="ab" width="85.251" height="3.095" transform="translate(66.862 130.23) rotate(-42.167)"/><rect class="ab" width="79.483" height="3.095" transform="translate(73.257 137.29) rotate(-42.167)"/><rect class="ab" width="85.251" height="3.095" transform="translate(79.652 144.35) rotate(-42.167)"/></g></g></g></g></svg>