<svg xmlns="http://www.w3.org/2000/svg" width="46" height="46" viewBox="0 0 46 46"><defs><style>.a{fill:#fc865a;}.b{fill:#fff;}</style></defs><g transform="translate(0 0)"><path class="a" d="M1449.037,4384.382a22.715,22.715,0,1,1,45.425.105,23.118,23.118,0,0,1-2.705,10.787,8.754,8.754,0,0,0-1.036,3.837c0,.1,0,.2,0,.295a9.476,9.476,0,0,0,4.321,7.976H1471.75A22.858,22.858,0,0,1,1449.037,4384.382Z" transform="translate(-1449.037 -4361.382)"/></g><g transform="translate(11 15.328)"><path class="b" d="M1527.644,4467.045a4.642,4.642,0,0,1,1.664-1.376,5.806,5.806,0,0,1,4.942-.01,4.745,4.745,0,0,1,1.654,1.356,6.785,6.785,0,0,1,.97,1.9,12.043,12.043,0,0,1,.613,3.866,9.54,9.54,0,0,1-1.593,5.81,4.459,4.459,0,0,1-1.644,1.335,5.914,5.914,0,0,1-4.9-.009,4.713,4.713,0,0,1-1.675-1.326,6.876,6.876,0,0,1-.99-1.883,12.224,12.224,0,0,1-.592-3.947,10.985,10.985,0,0,1,.48-3.461A8.461,8.461,0,0,1,1527.644,4467.045Zm4.125,9.808q2.1,0,2.1-3.968v-.122q0-4.069-2.083-4.069t-2.083,4.079Q1529.706,4476.854,1531.769,4476.854Z" transform="translate(-1526.092 -4465.112)"/><path class="b" d="M1619.728,4466.529a4.361,4.361,0,0,1,1.45,3.188,2.663,2.663,0,0,1-1.593,2.561v.142a3.526,3.526,0,0,1,.6.436,4.146,4.146,0,0,1,.643.657,3.047,3.047,0,0,1,.674,1.944,4.509,4.509,0,0,1-1.634,3.572,6.068,6.068,0,0,1-4.1,1.407,6.007,6.007,0,0,1-4.084-1.417,5.045,5.045,0,0,1-1.082-1.437,3.457,3.457,0,0,1-.225-.526l-.041-.2a3.6,3.6,0,0,1-.225-1.093q0-1.175,2-1.174a1.952,1.952,0,0,1,1.082.2,2.189,2.189,0,0,1,.613,1.053,1.62,1.62,0,0,0,1.123.972,2.873,2.873,0,0,0,.857.121,2.42,2.42,0,0,0,1.593-.435,1.274,1.274,0,0,0,.511-.982,1.224,1.224,0,0,0-.5-.961,1.8,1.8,0,0,0-1.184-.416,6.914,6.914,0,0,1-.929-.04,1.624,1.624,0,0,1-.531-.2q-.551-.263-.551-1.559,0-1.417.755-1.68a4.1,4.1,0,0,1,1.062-.1q1.552,0,1.552-.79a1.114,1.114,0,0,0-.408-.81,1.589,1.589,0,0,0-1.134-.385,2.334,2.334,0,0,0-1.154.243,1.162,1.162,0,0,0-.531.486l-.123.243a1.472,1.472,0,0,1-1.348,1.012,2.234,2.234,0,0,1-1.123-.365q-1.021-.587-1.021-1.356a4.67,4.67,0,0,1,.47-1.377,3.735,3.735,0,0,1,.449-.637,4.29,4.29,0,0,1,.847-.8,5.007,5.007,0,0,1,1.348-.628,6.177,6.177,0,0,1,1.93-.284A5.424,5.424,0,0,1,1619.728,4466.529Z" transform="translate(-1597.695 -4465.112)"/></g></svg>