<svg xmlns="http://www.w3.org/2000/svg" width="46" height="46" viewBox="0 0 46 46"><defs><style>.a{fill:#ee7d54;}.b{fill:#fff;}</style></defs><g transform="translate(0)"><g transform="translate(0 0)"><path class="a" d="M1952.191,4384.382a22.715,22.715,0,1,1,45.425.105,23.119,23.119,0,0,1-2.705,10.787,8.757,8.757,0,0,0-1.036,3.837c0,.1,0,.2,0,.295a9.477,9.477,0,0,0,4.321,7.976H1974.9A22.858,22.858,0,0,1,1952.191,4384.382Z" transform="translate(-1952.191 -4361.382)"/></g><g transform="translate(11 15.328)"><path class="b" d="M2032.939,4467.045a4.641,4.641,0,0,1,1.665-1.376,5.8,5.8,0,0,1,4.941-.01,4.744,4.744,0,0,1,1.654,1.356,6.8,6.8,0,0,1,.97,1.9,12.047,12.047,0,0,1,.613,3.866,9.541,9.541,0,0,1-1.593,5.81,4.459,4.459,0,0,1-1.644,1.335,5.381,5.381,0,0,1-2.44.527,5.436,5.436,0,0,1-2.461-.536,4.71,4.71,0,0,1-1.674-1.326,6.872,6.872,0,0,1-.99-1.883,12.218,12.218,0,0,1-.592-3.947,10.971,10.971,0,0,1,.48-3.461A8.457,8.457,0,0,1,2032.939,4467.045Zm4.125,9.808q2.1,0,2.1-3.968v-.122q0-4.069-2.083-4.069t-2.083,4.079Q2035,4476.854,2037.064,4476.854Z" transform="translate(-2031.387 -4465.112)"/><path class="b" d="M2121.578,4466.638a.886.886,0,0,1,.562-.395,4,4,0,0,1,1.041-.112,3.309,3.309,0,0,1,1.032.132.95.95,0,0,1,.551.425,1.529,1.529,0,0,1,.194.536,6.031,6.031,0,0,1,.031.708v11.255a2.651,2.651,0,0,1-.194,1.164.956.956,0,0,1-.592.5,4.245,4.245,0,0,1-1.93.021,1.623,1.623,0,0,1-.531-.243.786.786,0,0,1-.265-.4,3.351,3.351,0,0,1-.123-1.053V4476.7h-5.534q-1.429,0-1.695-.77a2.99,2.99,0,0,1-.1-.87,3.855,3.855,0,0,1,.062-.81l1.695-6.781q.123-.465.214-.708a1.136,1.136,0,0,1,.368-.466,1.086,1.086,0,0,1,.7-.223,3.525,3.525,0,0,1,.939.142q1.429.385,1.429,1.3a3.438,3.438,0,0,1-.143.851.15.15,0,0,0-.021.06l-1.245,4.94h3.329v-5.527a5.668,5.668,0,0,1,.03-.688A1.451,1.451,0,0,1,2121.578,4466.638Z" transform="translate(-2101.812 -4465.929)"/></g></g></svg>