<svg xmlns="http://www.w3.org/2000/svg" xmlns:xlink="http://www.w3.org/1999/xlink" width="182" height="96" viewBox="0 0 182 96"><defs><style>.a{fill:#fff;}.b{fill:#131523;font-size:15px;letter-spacing:0.004em;}.b,.g{font-family:Poppins-SemiBold, Poppins;font-weight:600;}.c{fill:#8e8e90;font-size:8px;font-family:NotoSans-Regular, Noto Sans;}.c,.g{letter-spacing:0.006em;}.d{fill:#7e84a3;font-size:5px;font-family:Poppins-Regular, Poppins;}.e,.f,.j{fill:none;}.f{stroke:#3dd598;}.f,.j{stroke-linecap:round;stroke-linejoin:round;}.g{fill:#3dd598;font-size:7px;}.h{fill:rgba(0,88,255,0.1);stroke:rgba(0,88,255,0.1);stroke-miterlimit:10;opacity:0.4;}.i{opacity:0.5;}.j{stroke:#0058ff;stroke-width:1.2px;}.k{stroke:none;}.l{filter:url(#a);}</style><filter id="a" x="0" y="0" width="182" height="96" filterUnits="userSpaceOnUse"><feOffset dy="1" input="SourceAlpha"/><feGaussianBlur stdDeviation="2" result="b"/><feFlood flood-color="#152232" flood-opacity="0.078"/><feComposite operator="in" in2="b"/><feComposite in="SourceGraphic"/></filter></defs><g transform="translate(6 5.006)"><g class="l" transform="matrix(1, 0, 0, 1, -6, -5.01)"><rect class="a" width="170" height="84" rx="6" transform="translate(6 5)"/></g><g transform="translate(11.452 11.452)"><text class="b" transform="translate(-0.452 31.542)"><tspan x="0" y="0">20k</tspan></text><text class="c" transform="translate(-0.452 6.542)"><tspan x="0" y="0">Total Users</tspan></text><g transform="translate(-0.111 48.673)"><text class="d" transform="translate(32.641 6.619)"><tspan x="0" y="0">than last year</tspan></text><g transform="translate(0 0)"><g transform="translate(17.659 1.63)"><path class="e" d="M0,0H8.982V8.982H0Z"/><line class="f" y2="5.685" transform="translate(4.527 1.613)"/><line class="f" x1="1.684" y1="1.684" transform="translate(4.535 1.629)"/><line class="f" y1="1.684" x2="1.684" transform="translate(2.834 1.629)"/></g><text class="g" transform="translate(-0.341 6.869)"><tspan x="0" y="0">1.3%</tspan></text></g></g></g><g transform="translate(124.068 24.814)"><g transform="translate(0 0)"><g class="h" transform="translate(-0.068 0.181)"><circle class="k" cx="16.5" cy="16.5" r="16.5"/><circle class="e" cx="16.5" cy="16.5" r="16"/></g><g class="i" transform="translate(10.778 11.799)"><path class="e" d="M0,0H13.473V10.846H0Z"/><circle class="j" cx="2" cy="2" r="2" transform="translate(3.155 0.381)"/><path class="j" d="M3,17.712v-.9A2.063,2.063,0,0,1,5.246,15H7.491a2.063,2.063,0,0,1,2.246,1.808v.9" transform="translate(-1.316 -8.221)"/><path class="j" d="M16,3.13a1.928,1.928,0,0,1,1.689,1.751A1.928,1.928,0,0,1,16,6.633" transform="translate(-7.018 -1.715)"/><path class="j" d="M19.684,17.794v-.9A1.93,1.93,0,0,0,18,15.15" transform="translate(-7.895 -8.303)"/></g></g></g></g></svg>