<svg xmlns="http://www.w3.org/2000/svg" width="46" height="46" viewBox="0 0 46 46"><defs><style>.a{fill:#f78686;}.b{fill:#fff;}</style></defs><g transform="translate(0 0)"><path class="a" d="M2455.33,4384.382a22.715,22.715,0,1,1,45.425.105,23.119,23.119,0,0,1-2.7,10.787,8.752,8.752,0,0,0-1.036,3.837c0,.1,0,.2,0,.295a9.476,9.476,0,0,0,4.321,7.976h-23.287A22.858,22.858,0,0,1,2455.33,4384.382Z" transform="translate(-2455.33 -4361.382)"/></g><g transform="translate(11 15.328)"><path class="b" d="M2539.326,4467.045a4.644,4.644,0,0,1,1.664-1.376,5.807,5.807,0,0,1,4.942-.01,4.742,4.742,0,0,1,1.654,1.356,6.775,6.775,0,0,1,.97,1.9,12.04,12.04,0,0,1,.613,3.866,9.541,9.541,0,0,1-1.593,5.81,4.461,4.461,0,0,1-1.644,1.335,5.915,5.915,0,0,1-4.9-.009,4.708,4.708,0,0,1-1.674-1.326,6.866,6.866,0,0,1-.99-1.883,12.224,12.224,0,0,1-.593-3.947,10.992,10.992,0,0,1,.48-3.461A8.465,8.465,0,0,1,2539.326,4467.045Zm4.125,9.808q2.1,0,2.1-3.968v-.122q0-4.069-2.083-4.069t-2.083,4.079Q2541.388,4476.854,2543.451,4476.854Z" transform="translate(-2537.774 -4465.112)"/><path class="b" d="M2623.291,4466.345l3.1.02h1.919a5.757,5.757,0,0,1,.715.031,1.65,1.65,0,0,1,.531.192q.552.283.551,1.62,0,1.214-.51,1.478a1.483,1.483,0,0,1-.5.192,5.17,5.17,0,0,1-.664.03h-3.574q-.04.242-.2,1.539a4.463,4.463,0,0,1,.714-.041,4.99,4.99,0,0,1,3.492,1.448,4.657,4.657,0,0,1,1.552,3.542,4.979,4.979,0,0,1-1.47,3.6,4.9,4.9,0,0,1-3.655,1.508,6.365,6.365,0,0,1-3.431-.952,3.214,3.214,0,0,1-.511-.384l-.163-.142a1.784,1.784,0,0,1-.776-1.215,2.116,2.116,0,0,1,.756-1.316,1.691,1.691,0,0,1,1.185-.667,2.349,2.349,0,0,1,1.368.648,1.618,1.618,0,0,0,1.276.425,2,2,0,0,0,1.348-.385,1.338,1.338,0,0,0,.438-1.062,1.315,1.315,0,0,0-.479-1.072,1.671,1.671,0,0,0-1.093-.4,1.328,1.328,0,0,0-.98.365,1.727,1.727,0,0,1-1.113.466,2.82,2.82,0,0,1-1.286-.385,4.187,4.187,0,0,1-.95-.618.706.706,0,0,1-.225-.5q0-.264.409-3.26t.429-3.118a2.421,2.421,0,0,1,.143-.425,2.644,2.644,0,0,1,.3-.547,1.534,1.534,0,0,1,.531-.435A1.716,1.716,0,0,1,2623.291,4466.345Z" transform="translate(-2608.199 -4466.163)"/></g></svg>