<svg xmlns="http://www.w3.org/2000/svg" width="46" height="46" viewBox="0 0 46 46"><defs><style>.a{fill:#f67272;}.b{fill:#fff;}</style></defs><g transform="translate(0 0)"><path class="a" d="M442.689,4968.04a22.715,22.715,0,1,1,45.425.106,23.117,23.117,0,0,1-2.705,10.787,8.755,8.755,0,0,0-1.036,3.838q0,.146,0,.294a9.475,9.475,0,0,0,4.321,7.976H465.4A22.857,22.857,0,0,1,442.689,4968.04Z" transform="translate(-442.689 -4945.041)"/></g><g transform="translate(11 15.328)"><path class="b" d="M524.612,5050.705a4.643,4.643,0,0,1,1.664-1.377,5.815,5.815,0,0,1,4.942-.01,4.748,4.748,0,0,1,1.654,1.357,6.792,6.792,0,0,1,.97,1.9,12.054,12.054,0,0,1,.613,3.867,9.54,9.54,0,0,1-1.593,5.81,4.457,4.457,0,0,1-1.644,1.336,5.91,5.91,0,0,1-4.9-.01,4.7,4.7,0,0,1-1.674-1.326,6.848,6.848,0,0,1-.99-1.882,12.219,12.219,0,0,1-.592-3.947,10.991,10.991,0,0,1,.48-3.461A8.466,8.466,0,0,1,524.612,5050.705Zm4.125,9.808q2.1,0,2.1-3.968v-.121q0-4.069-2.083-4.069t-2.083,4.079Q526.674,5060.514,528.737,5060.513Z" transform="translate(-523.06 -5048.772)"/><path class="b" d="M617.492,5060.582a4.482,4.482,0,0,1-1.48,3.421,5.074,5.074,0,0,1-3.584,1.377,4.811,4.811,0,0,1-4-1.69,6.783,6.783,0,0,1-1.348-4.363,9.585,9.585,0,0,1,2.216-6.456,7.548,7.548,0,0,1,6.055-2.592,2.5,2.5,0,0,1,1.133.192.965.965,0,0,1,.48.577,3.251,3.251,0,0,1,.122.972,3.385,3.385,0,0,1-.1.931,1.6,1.6,0,0,1-.245.526.8.8,0,0,1-.408.264,4.011,4.011,0,0,1-1.184.121,4.76,4.76,0,0,0-1.623.283,3.859,3.859,0,0,0-2.338,2.187l-.1.283a3.631,3.631,0,0,1,1.511-.344,4.934,4.934,0,0,1,3.461,1.325A3.985,3.985,0,0,1,617.492,5060.582Zm-5.146,1.478q1.572,0,1.572-1.356a1.3,1.3,0,0,0-.357-.87,1.453,1.453,0,0,0-1.143-.4,1.752,1.752,0,0,0-1.2.374,1.045,1.045,0,0,0-.419.759,2.553,2.553,0,0,0,.051.587,1.726,1.726,0,0,0,.194.446Q611.325,5062.061,612.346,5062.06Z" transform="translate(-594.663 -5050.055)"/></g></svg>