<svg xmlns="http://www.w3.org/2000/svg" xmlns:xlink="http://www.w3.org/1999/xlink" width="181" height="74" viewBox="0 0 181 74"><defs><style>.a{fill:#fff;}.b{fill:#131523;font-size:10px;letter-spacing:0.004em;}.b,.g{font-family:Poppins-SemiBold, Poppins;font-weight:600;}.c{fill:#8e8e90;font-size:8px;font-family:NotoSans-Regular, Noto Sans;}.c,.g{letter-spacing:0.006em;}.d{fill:#7e84a3;font-size:2px;font-family:Poppins-Regular, Poppins;}.e,.f,.i{fill:none;}.f{stroke:#f0142f;stroke-linecap:round;stroke-linejoin:round;}.g{fill:#f0142f;font-size:5px;}.h{fill:url(#c);}.i{stroke:#1fd286;stroke-miterlimit:10;}.j{filter:url(#a);}</style><filter id="a" x="0" y="0" width="181" height="74" filterUnits="userSpaceOnUse"><feOffset dy="1" input="SourceAlpha"/><feGaussianBlur stdDeviation="2" result="b"/><feFlood flood-color="#152232" flood-opacity="0.078"/><feComposite operator="in" in2="b"/><feComposite in="SourceGraphic"/></filter><linearGradient id="c" x1="0.5" y1="-1" x2="0.5" y2="1" gradientUnits="objectBoundingBox"><stop offset="0" stop-color="#1fd286"/><stop offset="1" stop-color="#1fd286" stop-opacity="0"/></linearGradient></defs><g transform="translate(6.492 5.2)"><g class="j" transform="matrix(1, 0, 0, 1, -6.49, -5.2)"><rect class="a" width="169" height="62" rx="6" transform="translate(6 5)"/></g><g transform="translate(7.635 8.589)"><text class="b" transform="translate(-0.127 29.211)"><tspan x="0" y="0">$306.20</tspan></text><text class="c" transform="translate(-0.127 9.211)"><tspan x="0" y="0">Avg. Order Value</tspan></text><g transform="translate(0.26 35.312)"><text class="d" transform="translate(26.22 4.234)"><tspan x="0" y="0">than last year</tspan></text><g transform="translate(0 0)"><g transform="translate(13.613 0.115)"><path class="e" d="M0,6.607H6.607V0H0Z"/><line class="f" y1="4.182" transform="translate(3.33 1.239)"/><line class="f" x1="1.239" y2="1.239" transform="translate(3.336 4.17)"/><line class="f" x2="1.239" y2="1.239" transform="translate(2.085 4.17)"/></g><text class="g" transform="translate(-0.387 4.9)"><tspan x="0" y="0">1.3%</tspan></text></g></g></g><g transform="translate(96.267 35.136)"><g transform="translate(0 0)"><path class="h" d="M0,12.389,8.04,5.781l8.04,2.891,8.04-3.717L32.162,0,40.2,2.065,48.243,3.3,56.283,0l8.04,5.781V17.757H0Z" transform="translate(0 0)"/><path class="i" d="M0,12.389,8.04,5.781l8.04,2.891,8.04-3.717L32.162,0,40.2,2.065,48.243,3.3,56.283,0l8.04,5.781" transform="translate(0.097 0)"/></g></g></g></svg>