<svg xmlns="http://www.w3.org/2000/svg" width="46" height="46" viewBox="0 0 46 46"><defs><style>.a{fill:#ff994b;}.b{fill:#fff;}</style></defs><g transform="translate(0 0)"><path class="a" d="M945.958,4384.382a22.715,22.715,0,1,1,45.425.105,23.119,23.119,0,0,1-2.705,10.787,8.753,8.753,0,0,0-1.036,3.837c0,.1,0,.2,0,.295a9.476,9.476,0,0,0,4.321,7.976H968.67A22.858,22.858,0,0,1,945.958,4384.382Z" transform="translate(-945.958 -4361.382)"/></g><g transform="translate(11 15.328)"><path class="b" d="M1022.2,4467.045a4.642,4.642,0,0,1,1.664-1.376,5.806,5.806,0,0,1,4.942-.01,4.746,4.746,0,0,1,1.654,1.356,6.791,6.791,0,0,1,.97,1.9,12.046,12.046,0,0,1,.613,3.866,9.54,9.54,0,0,1-1.593,5.81,4.46,4.46,0,0,1-1.644,1.335,5.915,5.915,0,0,1-4.9-.009,4.714,4.714,0,0,1-1.674-1.326,6.862,6.862,0,0,1-.99-1.883,12.221,12.221,0,0,1-.592-3.947,10.985,10.985,0,0,1,.48-3.461A8.461,8.461,0,0,1,1022.2,4467.045Zm4.125,9.808q2.1,0,2.1-3.968v-.122q0-4.069-2.083-4.069t-2.083,4.079Q1024.266,4476.854,1026.329,4476.854Z" transform="translate(-1020.652 -4465.112)"/><path class="b" d="M1114.492,4476.61a2.7,2.7,0,0,1,1.195.192.969.969,0,0,1,.48.587,3.576,3.576,0,0,1,.122,1.032,3.221,3.221,0,0,1-.133,1.022.846.846,0,0,1-.439.526,2.692,2.692,0,0,1-1.266.243h-7.984a1.7,1.7,0,0,1-1.266-.547,1.771,1.771,0,0,1-.531-1.275,3.081,3.081,0,0,1,.766-2.013,7.319,7.319,0,0,1,1.848-1.58q1.082-.658,2.165-1.3a8.38,8.38,0,0,0,1.848-1.447,2.479,2.479,0,0,0,.766-1.721,1.457,1.457,0,0,0-.143-.516,2.315,2.315,0,0,0-.317-.547,1.625,1.625,0,0,0-.541-.394,2.342,2.342,0,0,0-1.021-.183,1.559,1.559,0,0,0-1.133.476,1.676,1.676,0,0,0-.541.942l-.082.465v.122a5.308,5.308,0,0,1-.031.668,1.432,1.432,0,0,1-.194.506q-.306.486-1.593.486-1.43,0-1.695-.769a3.743,3.743,0,0,1-.1-1.033,5.461,5.461,0,0,1,1.521-3.776,5.571,5.571,0,0,1,7.974.021,5.584,5.584,0,0,1,1.532,3.856,4.871,4.871,0,0,1-.511,2.187,5.3,5.3,0,0,1-1.225,1.66,9.642,9.642,0,0,1-2.7,1.8l-.51.2v.1Z" transform="translate(-1092.255 -4465.112)"/></g></svg>